<svg width="309" height="201" viewBox="0 0 309 201" fill="none" xmlns="http://www.w3.org/2000/svg">
    <path
        d="M234.005 201H193.197L168.228 160.8L154.804 142.04H116.68V160.8L119.365 201H87.1479L89.0272 160.8V38.86L87.1479 0H157.758C177.267 0 192.749 6.164 204.204 18.492C215.838 30.6413 221.655 48.0613 221.655 70.752C221.655 86.832 218.255 100.589 211.453 112.024C204.652 123.28 195.434 131.499 183.8 136.68L201.251 160.8L234.005 201ZM116.68 115.776H149.166C164.201 115.776 175.209 112.203 182.189 105.056C189.169 97.9093 192.66 86.4747 192.66 70.752C192.66 55.208 189.259 43.952 182.457 36.984C175.656 29.8373 164.738 26.264 149.703 26.264H116.68V115.776Z"
        fill="#05EDAB" />
    <path
        d="M309 116.884V131.034L241.702 165.767L242.704 149.044L295.254 124.03L242.704 99.7317L241.702 82.1509L309 116.884Z"
        fill="#05EDAB" />
    <path
        d="M66.2961 149.044L67.2984 165.767L0 131.034V116.884L67.2984 82.1509L66.2961 99.7317L13.8893 124.03L66.2961 149.044Z"
        fill="#05EDAB" />
</svg>